<?xml version="1.0" encoding="utf-8"?>
<svg version="1.1" xmlns:xlink="http://www.w3.org/1999/xlink" width="38px" height="36px" xmlns="http://www.w3.org/2000/svg">
  <defs>
    <pattern id="BGPattern" patternUnits="userSpaceOnUse" alignment="0 0" imageRepeat="None" />
    <mask fill="white" id="Clip19">
      <path d="M 0 36  L 0 0  L 38 0  L 38 36  L 0 36  Z " fill-rule="evenodd" />
    </mask>
  </defs>
  <g transform="matrix(1 0 0 1 -212 -477 )">
    <path d="M 0 36  L 0 0  L 38 0  L 38 36  L 0 36  Z " fill-rule="nonzero" fill="rgba(242, 242, 242, 1)" stroke="none" transform="matrix(1 0 0 1 212 477 )" class="fill" />
    <path d="M 0 36  L 0 0  L 38 0  L 38 36  L 0 36  Z " stroke-width="2" stroke-dasharray="0" stroke="rgba(121, 121, 121, 1)" fill="none" transform="matrix(1 0 0 1 212 477 )" class="stroke" mask="url(#Clip19)" />
    <path d="M 37.61685830571637 0.3629763419529134  L 0.38314169428363076 35.637023658047084  M 0.38314169428363076 0.3629763419529134  L 37.61685830571637 35.637023658047084  " stroke-width="1" stroke-dasharray="0" stroke="rgba(121, 121, 121, 1)" fill="none" transform="matrix(1 0 0 1 212 477 )" class="stroke" />
  </g>
</svg>