<?xml version="1.0" encoding="utf-8"?>
<svg version="1.1" xmlns:xlink="http://www.w3.org/1999/xlink" width="37px" height="34px" xmlns="http://www.w3.org/2000/svg">
  <defs>
    <pattern id="BGPattern" patternUnits="userSpaceOnUse" alignment="0 0" imageRepeat="None" />
    <mask fill="white" id="Clip28">
      <path d="M 0 12  C 0 5.279999999999999  5.9399999999999995 0  13.5 0  C 21.060000000000002 0  27 5.279999999999999  27 12  C 27 18.72  21.060000000000002 24  13.5 24  C 5.9399999999999995 24  0 18.72  0 12  Z " fill-rule="evenodd" />
    </mask>
  </defs>
  <g transform="matrix(1 0 0 1 -94 -222 )">
    <path d="M 0 12  C 0 5.279999999999999  5.9399999999999995 0  13.5 0  C 21.060000000000002 0  27 5.279999999999999  27 12  C 27 18.72  21.060000000000002 24  13.5 24  C 5.9399999999999995 24  0 18.72  0 12  Z " fill-rule="nonzero" fill="rgba(217, 93, 147, 1)" stroke="none" transform="matrix(1 0 0 1 98 226 )" class="fill" />
    <path d="M 0 12  C 0 5.279999999999999  5.9399999999999995 0  13.5 0  C 21.060000000000002 0  27 5.279999999999999  27 12  C 27 18.72  21.060000000000002 24  13.5 24  C 5.9399999999999995 24  0 18.72  0 12  Z " stroke-width="2" stroke-dasharray="0" stroke="rgba(255, 255, 255, 1)" fill="none" transform="matrix(1 0 0 1 98 226 )" class="stroke" mask="url(#Clip28)" />
  </g>
  <style>svg { filter: drop-shadow(1px 1px 2.5px rgba(0, 0, 0, 0.6980392156862745)); }</style>
</svg>