<?xml version="1.0" encoding="utf-8"?>
<svg version="1.1" xmlns:xlink="http://www.w3.org/1999/xlink" width="36px" height="36px" xmlns="http://www.w3.org/2000/svg">
  <defs>
    <pattern id="BGPattern" patternUnits="userSpaceOnUse" alignment="0 0" imageRepeat="None" />
    <mask fill="white" id="Clip6">
      <path d="M 0 13  C 0 5.719999999999999  5.719999999999999 0  13 0  C 20.28 0  26 5.719999999999999  26 13  C 26 20.28  20.28 26  13 26  C 5.719999999999999 26  0 20.28  0 13  Z " fill-rule="evenodd" />
    </mask>
  </defs>
  <g transform="matrix(1 0 0 1 -6374 -1365 )">
    <path d="M 0 13  C 0 5.719999999999999  5.719999999999999 0  13 0  C 20.28 0  26 5.719999999999999  26 13  C 26 20.28  20.28 26  13 26  C 5.719999999999999 26  0 20.28  0 13  Z " fill-rule="nonzero" fill="rgba(217, 93, 147, 1)" stroke="none" transform="matrix(1 0 0 1 6378 1369 )" class="fill" />
    <path d="M 0 13  C 0 5.719999999999999  5.719999999999999 0  13 0  C 20.28 0  26 5.719999999999999  26 13  C 26 20.28  20.28 26  13 26  C 5.719999999999999 26  0 20.28  0 13  Z " stroke-width="2" stroke-dasharray="0" stroke="rgba(255, 255, 255, 1)" fill="none" transform="matrix(1 0 0 1 6378 1369 )" class="stroke" mask="url(#Clip6)" />
  </g>
  <style>svg { filter: drop-shadow(1px 1px 2.5px rgba(0, 0, 0, 0.6980392156862745)); }</style>
</svg>