<?xml version="1.0" encoding="utf-8"?>
<svg version="1.1" xmlns:xlink="http://www.w3.org/1999/xlink" width="10px" height="319px" preserveAspectRatio="xMidYMin meet" viewBox="5336 306 8 319" xmlns="http://www.w3.org/2000/svg">
  <path d="M 5353 311.5  L 5345 311.5  A 5 5 0 0 0 5340.5 316.5 L 5340.5 615  A 5 5 0 0 0 5345.5 620.5 L 5415 620.5  A 5 5 0 0 1 5420.5 625.5 L 5420.5 629  " stroke-width="1" stroke-dasharray="0" stroke="rgba(188, 12, 12, 1)" fill="none" class="stroke" />
  <path d="M 5347.946446609407 306.8535533905933  L 5352.5928932188135 311.5  L 5347.946446609407 316.1464466094067  L 5348.6535533905935 316.8535533905933  L 5353.6535533905935 311.8535533905933  L 5354.007106781187 311.5  L 5353.6535533905935 311.1464466094067  L 5348.6535533905935 306.1464466094067  L 5347.946446609407 306.8535533905933  Z M 5425.146446609407 623.9464466094067  L 5420.5 628.5928932188134  L 5415.853553390593 623.9464466094067  L 5415.146446609407 624.6535533905932  L 5420.146446609407 629.6535533905932  L 5420.5 630.0071067811865  L 5420.853553390593 629.6535533905932  L 5425.853553390593 624.6535533905932  L 5425.146446609407 623.9464466094067  Z " fill-rule="nonzero" fill="rgba(188, 12, 12, 1)" stroke="none" class="fill" />
</svg>