<?xml version="1.0" encoding="utf-8"?>
<svg version="1.1" xmlns:xlink="http://www.w3.org/1999/xlink" width="18px" height="18px" preserveAspectRatio="xMinYMid meet" viewBox="53 525 18 16" xmlns="http://www.w3.org/2000/svg">
  <path d="M 62.5 533  L 62.5 645  A 5 5 0 0 0 67.5 650.5 L 521 650.5  A 5 5 0 0 1 526.5 655.5 L 526.5 712  " stroke-width="1" stroke-dasharray="0" stroke="rgba(188, 12, 12, 1)" fill="none" class="stroke" />
  <path d="M 57.85355339059328 538.0535533905933  L 62.5 533.4071067811865  L 67.14644660940672 538.0535533905933  L 67.85355339059328 537.3464466094068  L 62.85355339059328 532.3464466094068  L 62.5 531.9928932188135  L 62.14644660940672 532.3464466094068  L 57.14644660940672 537.3464466094068  L 57.85355339059328 538.0535533905933  Z M 531.1464466094068 706.9464466094067  L 526.5 711.5928932188135  L 521.8535533905932 706.9464466094067  L 521.1464466094068 707.6535533905932  L 526.1464466094068 712.6535533905932  L 526.5 713.0071067811864  L 526.8535533905932 712.6535533905932  L 531.8535533905932 707.6535533905932  L 531.1464466094068 706.9464466094067  Z " fill-rule="nonzero" fill="rgba(188, 12, 12, 1)" stroke="none" class="fill" />
</svg>