<?xml version="1.0" encoding="utf-8"?>
<svg version="1.1" xmlns:xlink="http://www.w3.org/1999/xlink" width="10px" height="34px" preserveAspectRatio="xMidYMin meet" viewBox="3992 1857 8 34" xmlns="http://www.w3.org/2000/svg">
  <path d="M 3881.5 1834  L 3881.5 1857  A 5 5 0 0 0 3886.5 1862.5 L 3991 1862.5  A 5 5 0 0 1 3996.5 1867.5 L 3996.5 1890  " stroke-width="1" stroke-dasharray="0" stroke="rgba(188, 12, 12, 1)" fill="none" class="stroke" />
  <path d="M 3876.8535533905933 1839.0535533905934  L 3881.5 1834.4071067811867  L 3886.1464466094067 1839.0535533905934  L 3886.8535533905933 1838.3464466094067  L 3881.8535533905933 1833.3464466094067  L 3881.5 1832.9928932188134  L 3881.1464466094067 1833.3464466094067  L 3876.1464466094067 1838.3464466094067  L 3876.8535533905933 1839.0535533905934  Z M 4001.1464466094067 1884.9464466094066  L 3996.5 1889.5928932188133  L 3991.8535533905933 1884.9464466094066  L 3991.1464466094067 1885.6535533905933  L 3996.1464466094067 1890.6535533905933  L 3996.5 1891.0071067811866  L 3996.8535533905933 1890.6535533905933  L 4001.8535533905933 1885.6535533905933  L 4001.1464466094067 1884.9464466094066  Z " fill-rule="nonzero" fill="rgba(188, 12, 12, 1)" stroke="none" class="fill" />
</svg>