<?xml version="1.0" encoding="utf-8"?>
<svg version="1.1" xmlns:xlink="http://www.w3.org/1999/xlink" width="10px" height="126px" preserveAspectRatio="xMidYMin meet" viewBox="6259 293 8 126" xmlns="http://www.w3.org/2000/svg">
  <path d="M 6220 298.5  L 6258 298.5  A 5 5 0 0 1 6263.5 303.5 L 6263.5 409  A 5 5 0 0 0 6268.5 414.5 L 6306 414.5  " stroke-width="1" stroke-dasharray="0" stroke="rgba(188, 12, 12, 1)" fill="none" class="stroke" />
  <path d="M 6225.053553390593 303.1464466094067  L 6220.4071067811865 298.5  L 6225.053553390593 293.8535533905933  L 6224.3464466094065 293.1464466094067  L 6219.3464466094065 298.1464466094067  L 6218.992893218813 298.5  L 6219.3464466094065 298.8535533905933  L 6224.3464466094065 303.8535533905933  L 6225.053553390593 303.1464466094067  Z M 6300.946446609407 409.8535533905933  L 6305.5928932188135 414.5  L 6300.946446609407 419.1464466094067  L 6301.6535533905935 419.8535533905933  L 6306.6535533905935 414.8535533905933  L 6307.007106781187 414.5  L 6306.6535533905935 414.1464466094067  L 6301.6535533905935 409.1464466094067  L 6300.946446609407 409.8535533905933  Z " fill-rule="nonzero" fill="rgba(188, 12, 12, 1)" stroke="none" class="fill" />
</svg>