<?xml version="1.0" encoding="utf-8"?>
<svg version="1.1" xmlns:xlink="http://www.w3.org/1999/xlink" width="15px" height="10px" preserveAspectRatio="xMinYMid meet" viewBox="3516 1085 15 8" xmlns="http://www.w3.org/2000/svg">
  <path d="M 3530 1089.5  L 3526 1089.5  A 5 5 0 0 0 3521.5 1094.5 L 3521.5 1232  A 5 5 0 0 1 3516.5 1237.5 L 3087 1237.5  A 5 5 0 0 0 3082.5 1242.5 L 3082.5 1332  " stroke-width="1" stroke-dasharray="0" stroke="rgba(188, 12, 12, 1)" fill="none" class="stroke" />
  <path d="M 3524.946446609407 1084.8535533905933  L 3529.5928932188135 1089.5  L 3524.946446609407 1094.1464466094067  L 3525.6535533905935 1094.8535533905933  L 3530.6535533905935 1089.8535533905933  L 3531.007106781187 1089.5  L 3530.6535533905935 1089.1464466094067  L 3525.6535533905935 1084.1464466094067  L 3524.946446609407 1084.8535533905933  Z M 3087.1464466094067 1326.9464466094066  L 3082.5 1331.5928932188133  L 3077.8535533905933 1326.9464466094066  L 3077.1464466094067 1327.6535533905933  L 3082.1464466094067 1332.6535533905933  L 3082.5 1333.0071067811866  L 3082.8535533905933 1332.6535533905933  L 3087.8535533905933 1327.6535533905933  L 3087.1464466094067 1326.9464466094066  Z " fill-rule="nonzero" fill="rgba(188, 12, 12, 1)" stroke="none" class="fill" />
</svg>