<?xml version="1.0" encoding="utf-8"?>
<svg version="1.1" xmlns:xlink="http://www.w3.org/1999/xlink" width="241px" height="89px" xmlns="http://www.w3.org/2000/svg">
  <defs>
    <pattern id="BGPattern" patternUnits="userSpaceOnUse" alignment="0 0" imageRepeat="None" />
    <mask fill="white" id="Clip18">
      <path d="M 0 81  L 0 8  C 0 3.5199999999999996  3.5199999999999996 0  8 0  L 233 0  C 237.48 0  241 3.5199999999999996  241 8  L 241 81  C 241 85.47999999999999  237.48 89  233 89  L 8 89  C 3.5199999999999996 89  0 85.47999999999999  0 81  Z " fill-rule="evenodd" />
    </mask>
  </defs>
  <g transform="matrix(1 0 0 1 -822 -289 )">
    <path d="M 0 81  L 0 8  C 0 3.5199999999999996  3.5199999999999996 0  8 0  L 233 0  C 237.48 0  241 3.5199999999999996  241 8  L 241 81  C 241 85.47999999999999  237.48 89  233 89  L 8 89  C 3.5199999999999996 89  0 85.47999999999999  0 81  Z " fill-rule="nonzero" fill="rgba(252, 252, 252, 1)" stroke="none" transform="matrix(1 0 0 1 822 289 )" class="fill" />
    <path d="M 0 81  L 0 8  C 0 3.5199999999999996  3.5199999999999996 0  8 0  L 233 0  C 237.48 0  241 3.5199999999999996  241 8  L 241 81  C 241 85.47999999999999  237.48 89  233 89  L 8 89  C 3.5199999999999996 89  0 85.47999999999999  0 81  Z " stroke-width="2" stroke-dasharray="3,1" stroke="rgba(106, 72, 255, 1)" fill="none" transform="matrix(1 0 0 1 822 289 )" class="stroke" mask="url(#Clip18)" />
  </g>
</svg>