<?xml version="1.0" encoding="utf-8"?>
<svg version="1.1" xmlns:xlink="http://www.w3.org/1999/xlink" width="18px" height="18px" preserveAspectRatio="xMinYMid meet" viewBox="606 605 18 16" xmlns="http://www.w3.org/2000/svg">
  <path d="M 615 613.5  L 700 613.5  A 5 5 0 0 0 705.5 608.5 L 705.5 384  A 5 5 0 0 1 710.5 379.5 L 795 379.5  " stroke-width="1" stroke-dasharray="0" stroke="rgba(188, 12, 12, 1)" fill="none" class="stroke" />
  <path d="M 620.0535533905933 618.1464466094068  L 615.4071067811865 613.5  L 620.0535533905933 608.8535533905932  L 619.3464466094068 608.1464466094068  L 614.3464466094068 613.1464466094068  L 613.9928932188136 613.5  L 614.3464466094068 613.8535533905932  L 619.3464466094068 618.8535533905932  L 620.0535533905933 618.1464466094068  Z M 789.9464466094067 374.8535533905933  L 794.5928932188135 379.5  L 789.9464466094067 384.1464466094067  L 790.6535533905932 384.8535533905933  L 795.6535533905932 379.8535533905933  L 796.0071067811865 379.5  L 795.6535533905932 379.1464466094067  L 790.6535533905932 374.1464466094067  L 789.9464466094067 374.8535533905933  Z " fill-rule="nonzero" fill="rgba(188, 12, 12, 1)" stroke="none" class="fill" />
</svg>