<?xml version="1.0" encoding="utf-8"?>
<svg version="1.1" xmlns:xlink="http://www.w3.org/1999/xlink" width="10px" height="213px" preserveAspectRatio="xMidYMin meet" viewBox="201 376 8 213" xmlns="http://www.w3.org/2000/svg">
  <path d="M 104 584.5  L 200 584.5  A 5 5 0 0 0 205.5 579.5 L 205.5 386  A 5 5 0 0 1 210.5 381.5 L 306 381.5  " stroke-width="1" stroke-dasharray="0" stroke="rgba(188, 12, 12, 1)" fill="none" class="stroke" />
  <path d="M 109.05355339059328 589.1464466094068  L 104.4071067811865 584.5  L 109.05355339059328 579.8535533905932  L 108.34644660940673 579.1464466094068  L 103.34644660940673 584.1464466094068  L 102.9928932188135 584.5  L 103.34644660940673 584.8535533905932  L 108.34644660940673 589.8535533905932  L 109.05355339059328 589.1464466094068  Z M 300.94644660940673 376.8535533905933  L 305.59289321881346 381.5  L 300.94644660940673 386.1464466094067  L 301.6535533905933 386.8535533905933  L 306.6535533905933 381.8535533905933  L 307.00710678118656 381.5  L 306.6535533905933 381.1464466094067  L 301.6535533905933 376.1464466094067  L 300.94644660940673 376.8535533905933  Z " fill-rule="nonzero" fill="rgba(188, 12, 12, 1)" stroke="none" class="fill" />
</svg>