<?xml version="1.0" encoding="utf-8"?>
<svg version="1.1" xmlns:xlink="http://www.w3.org/1999/xlink" width="18px" height="18px" preserveAspectRatio="xMinYMid meet" viewBox="315 198 18 16" xmlns="http://www.w3.org/2000/svg">
  <path d="M 324 206.5  L 384 206.5  A 5 5 0 0 1 389.5 211.5 L 389.5 371  A 5 5 0 0 0 394.5 376.5 L 455 376.5  " stroke-width="1" stroke-dasharray="0" stroke="rgba(188, 12, 12, 1)" fill="none" class="stroke" />
  <path d="M 329.05355339059327 211.14644660940672  L 324.40710678118654 206.5  L 329.05355339059327 201.85355339059328  L 328.3464466094067 201.14644660940672  L 323.3464466094067 206.14644660940672  L 322.99289321881344 206.5  L 323.3464466094067 206.85355339059328  L 328.3464466094067 211.85355339059328  L 329.05355339059327 211.14644660940672  Z M 449.94644660940673 371.8535533905933  L 454.59289321881346 376.5  L 449.94644660940673 381.1464466094067  L 450.6535533905933 381.8535533905933  L 455.6535533905933 376.8535533905933  L 456.00710678118656 376.5  L 455.6535533905933 376.1464466094067  L 450.6535533905933 371.1464466094067  L 449.94644660940673 371.8535533905933  Z " fill-rule="nonzero" fill="rgba(188, 12, 12, 1)" stroke="none" class="fill" />
</svg>