<?xml version="1.0" encoding="utf-8"?>
<svg version="1.1" xmlns:xlink="http://www.w3.org/1999/xlink" width="18px" height="18px" preserveAspectRatio="xMinYMid meet" viewBox="681 297 18 16" xmlns="http://www.w3.org/2000/svg">
  <path d="M 690 305.5  L 686 305.5  A 5 5 0 0 0 681.5 310.5 L 681.5 689  A 5 5 0 0 1 676.5 694.5 L 609 694.5  A 5 5 0 0 0 604.5 699.5 L 604.5 769  " stroke-width="1" stroke-dasharray="0" stroke="rgba(188, 12, 12, 1)" fill="none" class="stroke" />
  <path d="M 684.9464466094067 300.8535533905933  L 689.5928932188135 305.5  L 684.9464466094067 310.1464466094067  L 685.6535533905932 310.8535533905933  L 690.6535533905932 305.8535533905933  L 691.0071067811865 305.5  L 690.6535533905932 305.1464466094067  L 685.6535533905932 300.1464466094067  L 684.9464466094067 300.8535533905933  Z M 609.1464466094068 763.9464466094067  L 604.5 768.5928932188135  L 599.8535533905932 763.9464466094067  L 599.1464466094068 764.6535533905932  L 604.1464466094068 769.6535533905932  L 604.5 770.0071067811864  L 604.8535533905932 769.6535533905932  L 609.8535533905932 764.6535533905932  L 609.1464466094068 763.9464466094067  Z " fill-rule="nonzero" fill="rgba(188, 12, 12, 1)" stroke="none" class="fill" />
</svg>