<?xml version="1.0" encoding="utf-8"?>
<svg version="1.1" xmlns:xlink="http://www.w3.org/1999/xlink" width="18px" height="18px" preserveAspectRatio="xMinYMid meet" viewBox="703 326 18 16" xmlns="http://www.w3.org/2000/svg">
  <path d="M 712.5 334  L 712.5 695  A 5 5 0 0 0 717.5 700.5 L 961 700.5  A 5 5 0 0 1 966.5 705.5 L 966.5 769  " stroke-width="1" stroke-dasharray="0" stroke="rgba(188, 12, 12, 1)" fill="none" class="stroke" />
  <path d="M 707.8535533905932 339.05355339059327  L 712.5 334.4071067811865  L 717.1464466094068 339.05355339059327  L 717.8535533905932 338.3464466094067  L 712.8535533905932 333.3464466094067  L 712.5 332.9928932188135  L 712.1464466094068 333.3464466094067  L 707.1464466094068 338.3464466094067  L 707.8535533905932 339.05355339059327  Z M 971.1464466094068 763.9464466094067  L 966.5 768.5928932188135  L 961.8535533905932 763.9464466094067  L 961.1464466094068 764.6535533905932  L 966.1464466094068 769.6535533905932  L 966.5 770.0071067811864  L 966.8535533905932 769.6535533905932  L 971.8535533905932 764.6535533905932  L 971.1464466094068 763.9464466094067  Z " fill-rule="nonzero" fill="rgba(188, 12, 12, 1)" stroke="none" class="fill" />
</svg>