<?xml version="1.0" encoding="utf-8"?>
<svg version="1.1" xmlns:xlink="http://www.w3.org/1999/xlink" width="10px" height="271px" preserveAspectRatio="xMidYMin meet" viewBox="1101 371 8 271" xmlns="http://www.w3.org/2000/svg">
  <path d="M 1042 637.5  L 1100 637.5  A 5 5 0 0 0 1105.5 632.5 L 1105.5 381  A 5 5 0 0 1 1110.5 376.5 L 1169 376.5  " stroke-width="1" stroke-dasharray="0" stroke="rgba(188, 12, 12, 1)" fill="none" class="stroke" />
  <path d="M 1047.0535533905934 642.1464466094068  L 1042.4071067811865 637.5  L 1047.0535533905934 632.8535533905932  L 1046.3464466094067 632.1464466094068  L 1041.3464466094067 637.1464466094068  L 1040.9928932188136 637.5  L 1041.3464466094067 637.8535533905932  L 1046.3464466094067 642.8535533905932  L 1047.0535533905934 642.1464466094068  Z M 1163.9464466094066 371.8535533905933  L 1168.5928932188133 376.5  L 1163.9464466094066 381.1464466094067  L 1164.6535533905933 381.8535533905933  L 1169.6535533905933 376.8535533905933  L 1170.0071067811866 376.5  L 1169.6535533905933 376.1464466094067  L 1164.6535533905933 371.1464466094067  L 1163.9464466094066 371.8535533905933  Z " fill-rule="nonzero" fill="rgba(188, 12, 12, 1)" stroke="none" class="fill" />
</svg>