<?xml version="1.0" encoding="utf-8"?>
<svg version="1.1" xmlns:xlink="http://www.w3.org/1999/xlink" width="18px" height="18px" preserveAspectRatio="xMinYMid meet" viewBox="419 452 18 16" xmlns="http://www.w3.org/2000/svg">
  <path d="M 114 639.5  L 266 639.5  A 5 5 0 0 0 271.5 634.5 L 271.5 465  A 5 5 0 0 1 276.5 460.5 L 428 460.5  " stroke-width="1" stroke-dasharray="0" stroke="rgba(188, 12, 12, 1)" fill="none" class="stroke" />
  <path d="M 119.05355339059328 644.1464466094068  L 114.4071067811865 639.5  L 119.05355339059328 634.8535533905932  L 118.34644660940673 634.1464466094068  L 113.34644660940673 639.1464466094068  L 112.9928932188135 639.5  L 113.34644660940673 639.8535533905932  L 118.34644660940673 644.8535533905932  L 119.05355339059328 644.1464466094068  Z M 422.94644660940673 455.8535533905933  L 427.59289321881346 460.5  L 422.94644660940673 465.1464466094067  L 423.6535533905933 465.8535533905933  L 428.6535533905933 460.8535533905933  L 429.00710678118656 460.5  L 428.6535533905933 460.1464466094067  L 423.6535533905933 455.1464466094067  L 422.94644660940673 455.8535533905933  Z " fill-rule="nonzero" fill="rgba(188, 12, 12, 1)" stroke="none" class="fill" />
</svg>