<?xml version="1.0" encoding="utf-8"?>
<svg version="1.1" xmlns:xlink="http://www.w3.org/1999/xlink" width="18px" height="18px" preserveAspectRatio="xMinYMid meet" viewBox="861 559 18 16" xmlns="http://www.w3.org/2000/svg">
  <path d="M 612 646.5  L 736 646.5  A 5 5 0 0 0 741.5 641.5 L 741.5 572  A 5 5 0 0 1 746.5 567.5 L 870 567.5  " stroke-width="1" stroke-dasharray="0" stroke="rgba(188, 12, 12, 1)" fill="none" class="stroke" />
  <path d="M 617.0535533905933 651.1464466094068  L 612.4071067811865 646.5  L 617.0535533905933 641.8535533905932  L 616.3464466094068 641.1464466094068  L 611.3464466094068 646.1464466094068  L 610.9928932188136 646.5  L 611.3464466094068 646.8535533905932  L 616.3464466094068 651.8535533905932  L 617.0535533905933 651.1464466094068  Z M 864.9464466094067 562.8535533905932  L 869.5928932188135 567.5  L 864.9464466094067 572.1464466094068  L 865.6535533905932 572.8535533905932  L 870.6535533905932 567.8535533905932  L 871.0071067811864 567.5  L 870.6535533905932 567.1464466094068  L 865.6535533905932 562.1464466094068  L 864.9464466094067 562.8535533905932  Z " fill-rule="nonzero" fill="rgba(188, 12, 12, 1)" stroke="none" class="fill" />
</svg>