<?xml version="1.0" encoding="utf-8"?>
<svg version="1.1" xmlns:xlink="http://www.w3.org/1999/xlink" width="11px" height="13px" xmlns="http://www.w3.org/2000/svg">
  <defs>
    <pattern id="BGPattern" patternUnits="userSpaceOnUse" alignment="0 0" imageRepeat="None" />
    <mask fill="white" id="Clip13">
      <path d="M 0 6.5  C 0 2.8599999999999994  2.42 0  5.5 0  C 8.58 0  11 2.8599999999999994  11 6.5  C 11 10.14  8.58 13  5.5 13  C 2.42 13  0 10.14  0 6.5  Z " fill-rule="evenodd" />
    </mask>
  </defs>
  <g transform="matrix(1 0 0 1 -1027 -272 )">
    <path d="M 0 6.5  C 0 2.8599999999999994  2.42 0  5.5 0  C 8.58 0  11 2.8599999999999994  11 6.5  C 11 10.14  8.58 13  5.5 13  C 2.42 13  0 10.14  0 6.5  Z " fill-rule="nonzero" fill="rgba(255, 255, 255, 1)" stroke="none" transform="matrix(1 0 0 1 1027 272 )" class="fill" />
    <path d="M 0 6.5  C 0 2.8599999999999994  2.42 0  5.5 0  C 8.58 0  11 2.8599999999999994  11 6.5  C 11 10.14  8.58 13  5.5 13  C 2.42 13  0 10.14  0 6.5  Z " stroke-width="0" stroke-dasharray="0" stroke="rgba(121, 121, 121, 1)" fill="none" transform="matrix(1 0 0 1 1027 272 )" class="stroke" mask="url(#Clip13)" />
  </g>
</svg>