<?xml version="1.0" encoding="utf-8"?>
<svg version="1.1" xmlns:xlink="http://www.w3.org/1999/xlink" width="56px" height="10px" preserveAspectRatio="xMinYMid meet" viewBox="689 495 56 8" xmlns="http://www.w3.org/2000/svg">
  <path d="M 690 499.5  L 735 499.5  A 5 5 0 0 0 740.5 494.5 L 740.5 344  A 5 5 0 0 1 745.5 339.5 L 791 339.5  " stroke-width="1" stroke-dasharray="0" stroke="rgba(188, 12, 12, 1)" fill="none" class="stroke" />
  <path d="M 695.0535533905933 504.1464466094067  L 690.4071067811865 499.5  L 695.0535533905933 494.8535533905933  L 694.3464466094068 494.1464466094067  L 689.3464466094068 499.1464466094067  L 688.9928932188135 499.5  L 689.3464466094068 499.8535533905933  L 694.3464466094068 504.8535533905933  L 695.0535533905933 504.1464466094067  Z M 785.9464466094067 334.8535533905933  L 790.5928932188135 339.5  L 785.9464466094067 344.1464466094067  L 786.6535533905932 344.8535533905933  L 791.6535533905932 339.8535533905933  L 792.0071067811865 339.5  L 791.6535533905932 339.1464466094067  L 786.6535533905932 334.1464466094067  L 785.9464466094067 334.8535533905933  Z " fill-rule="nonzero" fill="rgba(188, 12, 12, 1)" stroke="none" class="fill" />
</svg>