<?xml version="1.0" encoding="utf-8"?>
<svg version="1.1" xmlns:xlink="http://www.w3.org/1999/xlink" width="18px" height="18px" preserveAspectRatio="xMinYMid meet" viewBox="540 838 18 16" xmlns="http://www.w3.org/2000/svg">
  <path d="M 524.5 611  L 524.5 723  A 5 5 0 0 0 529.5 728.5 L 544 728.5  A 5 5 0 0 1 549.5 733.5 L 549.5 846  " stroke-width="1" stroke-dasharray="0" stroke="rgba(188, 12, 12, 1)" fill="none" class="stroke" />
  <path d="M 519.8535533905932 616.0535533905933  L 524.5 611.4071067811865  L 529.1464466094068 616.0535533905933  L 529.8535533905932 615.3464466094068  L 524.8535533905932 610.3464466094068  L 524.5 609.9928932188136  L 524.1464466094068 610.3464466094068  L 519.1464466094068 615.3464466094068  L 519.8535533905932 616.0535533905933  Z M 554.1464466094068 840.9464466094067  L 549.5 845.5928932188135  L 544.8535533905932 840.9464466094067  L 544.1464466094068 841.6535533905932  L 549.1464466094068 846.6535533905932  L 549.5 847.0071067811864  L 549.8535533905932 846.6535533905932  L 554.8535533905932 841.6535533905932  L 554.1464466094068 840.9464466094067  Z " fill-rule="nonzero" fill="rgba(188, 12, 12, 1)" stroke="none" class="fill" />
</svg>