<?xml version="1.0" encoding="utf-8"?>
<svg version="1.1" xmlns:xlink="http://www.w3.org/1999/xlink" width="193px" height="10px" preserveAspectRatio="xMinYMid meet" viewBox="402 1406 193 8" xmlns="http://www.w3.org/2000/svg">
  <path d="M 578 652.5  L 585 652.5  A 5 5 0 0 1 590.5 657.5 L 590.5 1405  A 5 5 0 0 1 585.5 1410.5 L 412 1410.5  A 5 5 0 0 0 407.5 1415.5 L 407.5 1420  " stroke-width="1" stroke-dasharray="0" stroke="rgba(188, 12, 12, 1)" fill="none" class="stroke" />
  <path d="M 583.0535533905933 657.1464466094068  L 578.4071067811865 652.5  L 583.0535533905933 647.8535533905932  L 582.3464466094068 647.1464466094068  L 577.3464466094068 652.1464466094068  L 576.9928932188136 652.5  L 577.3464466094068 652.8535533905932  L 582.3464466094068 657.8535533905932  L 583.0535533905933 657.1464466094068  Z M 412.1464466094067 1414.9464466094066  L 407.5 1419.5928932188133  L 402.8535533905933 1414.9464466094066  L 402.1464466094067 1415.6535533905933  L 407.1464466094067 1420.6535533905933  L 407.5 1421.0071067811866  L 407.8535533905933 1420.6535533905933  L 412.8535533905933 1415.6535533905933  L 412.1464466094067 1414.9464466094066  Z " fill-rule="nonzero" fill="rgba(188, 12, 12, 1)" stroke="none" class="fill" />
</svg>