<?xml version="1.0" encoding="utf-8"?>
<svg version="1.1" xmlns:xlink="http://www.w3.org/1999/xlink" width="10px" height="192px" preserveAspectRatio="xMidYMin meet" viewBox="292 436 8 192" xmlns="http://www.w3.org/2000/svg">
  <path d="M 189.5 256  L 189.5 436  A 5 5 0 0 0 194.5 441.5 L 291 441.5  A 5 5 0 0 1 296.5 446.5 L 296.5 627  " stroke-width="1" stroke-dasharray="0" stroke="rgba(188, 12, 12, 1)" fill="none" class="stroke" />
  <path d="M 184.85355339059328 261.05355339059327  L 189.5 256.40710678118654  L 194.14644660940672 261.05355339059327  L 194.85355339059328 260.3464466094067  L 189.85355339059328 255.3464466094067  L 189.5 254.99289321881344  L 189.14644660940672 255.3464466094067  L 184.14644660940672 260.3464466094067  L 184.85355339059328 261.05355339059327  Z M 301.1464466094067 621.9464466094067  L 296.5 626.5928932188135  L 291.8535533905933 621.9464466094067  L 291.1464466094067 622.6535533905932  L 296.1464466094067 627.6535533905932  L 296.5 628.0071067811865  L 296.8535533905933 627.6535533905932  L 301.8535533905933 622.6535533905932  L 301.1464466094067 621.9464466094067  Z " fill-rule="nonzero" fill="rgba(188, 12, 12, 1)" stroke="none" class="fill" />
</svg>