<?xml version="1.0" encoding="utf-8"?>
<svg version="1.1" xmlns:xlink="http://www.w3.org/1999/xlink" width="10px" height="131px" preserveAspectRatio="xMidYMin meet" viewBox="644 15 8 131" xmlns="http://www.w3.org/2000/svg">
  <path d="M 648.5 145  L 648.5 25  A 5 5 0 0 1 653.5 20.5 L 2484 20.5  A 5 5 0 0 1 2489.5 25.5 L 2489.5 50  " stroke-width="1" stroke-dasharray="0" stroke="rgba(188, 12, 12, 1)" fill="none" class="stroke" />
  <path d="M 653.1464466094068 139.94644660940673  L 648.5 144.59289321881351  L 643.8535533905932 139.94644660940673  L 643.1464466094068 140.6535533905933  L 648.1464466094068 145.6535533905933  L 648.5 146.0071067811865  L 648.8535533905932 145.6535533905933  L 653.8535533905932 140.6535533905933  L 653.1464466094068 139.94644660940673  Z M 2494.1464466094067 44.94644660940672  L 2489.5 49.59289321881339  L 2484.8535533905933 44.94644660940672  L 2484.1464466094067 45.653553390593274  L 2489.1464466094067 50.653553390593274  L 2489.5 51.00710678118661  L 2489.8535533905933 50.653553390593274  L 2494.8535533905933 45.653553390593274  L 2494.1464466094067 44.94644660940672  Z " fill-rule="nonzero" fill="rgba(188, 12, 12, 1)" stroke="none" class="fill" />
</svg>