<?xml version="1.0" encoding="utf-8"?>
<svg version="1.1" xmlns:xlink="http://www.w3.org/1999/xlink" width="10px" height="20px" preserveAspectRatio="xMidYMin meet" viewBox="297 1275 8 20" xmlns="http://www.w3.org/2000/svg">
  <path d="M 301.5 1276  L 301.5 1285  A 5 5 0 0 0 306.5 1290.5 L 1881 1290.5  A 5 5 0 0 0 1886.5 1285.5 L 1886.5 866  " stroke-width="1" stroke-dasharray="0" stroke="rgba(188, 12, 12, 1)" fill="none" class="stroke" />
  <path d="M 296.8535533905933 1281.0535533905934  L 301.5 1276.4071067811867  L 306.1464466094067 1281.0535533905934  L 306.8535533905933 1280.3464466094067  L 301.8535533905933 1275.3464466094067  L 301.5 1274.9928932188134  L 301.1464466094067 1275.3464466094067  L 296.1464466094067 1280.3464466094067  L 296.8535533905933 1281.0535533905934  Z M 1881.8535533905933 871.0535533905933  L 1886.5 866.4071067811866  L 1891.1464466094067 871.0535533905933  L 1891.8535533905933 870.3464466094068  L 1886.8535533905933 865.3464466094068  L 1886.5 864.9928932188135  L 1886.1464466094067 865.3464466094068  L 1881.1464466094067 870.3464466094068  L 1881.8535533905933 871.0535533905933  Z " fill-rule="nonzero" fill="rgba(188, 12, 12, 1)" stroke="none" class="fill" />
</svg>