<?xml version="1.0" encoding="utf-8"?>
<svg version="1.1" xmlns:xlink="http://www.w3.org/1999/xlink" width="188px" height="10px" preserveAspectRatio="xMinYMid meet" viewBox="833 618 188 8" xmlns="http://www.w3.org/2000/svg">
  <path d="M 990.7448348762192 111.4588510772084  A 2 2 0 0 0 992.5 112.5 L 1011 112.5  A 5 5 0 0 1 1016.5 117.5 L 1016.5 617  A 5 5 0 0 1 1011.5 622.5 L 843 622.5  A 5 5 0 0 0 838.5 627.5 L 838.5 631  " stroke-width="1" stroke-dasharray="0" stroke="rgba(188, 12, 12, 1)" fill="none" class="stroke" />
  <path d="M 985.8535533905932 116.55355339059328  L 990.5 111.9071067811865  L 995.1464466094068 116.55355339059328  L 995.8535533905932 115.84644660940673  L 990.8535533905932 110.84644660940673  L 990.5 110.4928932188135  L 990.1464466094068 110.84644660940673  L 985.1464466094068 115.84644660940673  L 985.8535533905932 116.55355339059328  Z M 843.1464466094068 625.9464466094067  L 838.5 630.5928932188135  L 833.8535533905932 625.9464466094067  L 833.1464466094068 626.6535533905932  L 838.1464466094068 631.6535533905932  L 838.5 632.0071067811864  L 838.8535533905932 631.6535533905932  L 843.8535533905932 626.6535533905932  L 843.1464466094068 625.9464466094067  Z " fill-rule="nonzero" fill="rgba(188, 12, 12, 1)" stroke="none" class="fill" />
</svg>