<?xml version="1.0" encoding="utf-8"?>
<svg version="1.1" xmlns:xlink="http://www.w3.org/1999/xlink" width="10px" height="124px" preserveAspectRatio="xMidYMin meet" viewBox="2772 773 8 124" xmlns="http://www.w3.org/2000/svg">
  <path d="M 2136.5 63  L 2136.5 887  A 5 5 0 0 0 2141.5 892.5 L 2771 892.5  A 5 5 0 0 0 2776.5 887.5 L 2776.5 783  A 5 5 0 0 1 2781.5 778.5 L 2785 778.5  " stroke-width="1" stroke-dasharray="0" stroke="rgba(188, 12, 12, 1)" fill="none" class="stroke" />
  <path d="M 2131.8535533905933 68.05355339059328  L 2136.5 63.40710678118661  L 2141.1464466094067 68.05355339059328  L 2141.8535533905933 67.34644660940673  L 2136.8535533905933 62.346446609406726  L 2136.5 61.99289321881339  L 2136.1464466094067 62.346446609406726  L 2131.1464466094067 67.34644660940673  L 2131.8535533905933 68.05355339059328  Z M 2779.946446609407 773.8535533905932  L 2784.5928932188135 778.5  L 2779.946446609407 783.1464466094068  L 2780.6535533905935 783.8535533905932  L 2785.6535533905935 778.8535533905932  L 2786.007106781187 778.5  L 2785.6535533905935 778.1464466094068  L 2780.6535533905935 773.1464466094068  L 2779.946446609407 773.8535533905932  Z " fill-rule="nonzero" fill="rgba(188, 12, 12, 1)" stroke="none" class="fill" />
</svg>