<?xml version="1.0" encoding="utf-8"?>
<svg version="1.1" xmlns:xlink="http://www.w3.org/1999/xlink" width="18px" height="18px" preserveAspectRatio="xMinYMid meet" viewBox="55 1351 18 16" xmlns="http://www.w3.org/2000/svg">
  <path d="M 64 1359.5  L 209 1359.5  A 5 5 0 0 1 214.5 1364.5 L 214.5 1365  A 5 5 0 0 0 219.5 1370.5 L 353 1370.5  " stroke-width="1" stroke-dasharray="0" stroke="rgba(188, 12, 12, 1)" fill="none" class="stroke" />
  <path d="M 69.05355339059328 1364.1464466094067  L 64.40710678118661 1359.5  L 69.05355339059328 1354.8535533905933  L 68.34644660940673 1354.1464466094067  L 63.346446609406726 1359.1464466094067  L 62.99289321881339 1359.5  L 63.346446609406726 1359.8535533905933  L 68.34644660940673 1364.8535533905933  L 69.05355339059328 1364.1464466094067  Z M 347.94644660940673 1365.8535533905933  L 352.5928932188134 1370.5  L 347.94644660940673 1375.1464466094067  L 348.6535533905933 1375.8535533905933  L 353.6535533905933 1370.8535533905933  L 354.0071067811866 1370.5  L 353.6535533905933 1370.1464466094067  L 348.6535533905933 1365.1464466094067  L 347.94644660940673 1365.8535533905933  Z " fill-rule="nonzero" fill="rgba(188, 12, 12, 1)" stroke="none" class="fill" />
</svg>