<?xml version="1.0" encoding="utf-8"?>
<svg version="1.1" xmlns:xlink="http://www.w3.org/1999/xlink" width="11px" height="13px" xmlns="http://www.w3.org/2000/svg">
  <defs>
    <pattern id="BGPattern" patternUnits="userSpaceOnUse" alignment="0 0" imageRepeat="None" />
    <mask fill="white" id="Clip11">
      <path d="M 0 13  L 0 0  L 11 0  L 11 13  L 0 13  Z " fill-rule="evenodd" />
    </mask>
  </defs>
  <g transform="matrix(1 0 0 1 -857 -1717 )">
    <path d="M 0 13  L 0 0  L 11 0  L 11 13  L 0 13  Z " fill-rule="nonzero" fill="rgba(242, 242, 242, 1)" stroke="none" transform="matrix(1 0 0 1 857 1717 )" class="fill" />
    <path d="M 0 13  L 0 0  L 11 0  L 11 13  L 0 13  Z " stroke-width="2" stroke-dasharray="0" stroke="rgba(121, 121, 121, 1)" fill="none" transform="matrix(1 0 0 1 857 1717 )" class="stroke" mask="url(#Clip11)" />
    <path d="M 10.618306857315442 0.4510918958999313  L 0.38169314268455723 12.548908104100068  M 0.38169314268455723 0.4510918958999313  L 10.618306857315442 12.548908104100068  " stroke-width="1" stroke-dasharray="0" stroke="rgba(121, 121, 121, 1)" fill="none" transform="matrix(1 0 0 1 857 1717 )" class="stroke" />
  </g>
</svg>