<?xml version="1.0" encoding="utf-8"?>
<svg version="1.1" xmlns:xlink="http://www.w3.org/1999/xlink" width="12px" height="11px" xmlns="http://www.w3.org/2000/svg">
  <defs>
    <pattern id="BGPattern" patternUnits="userSpaceOnUse" alignment="0 0" imageRepeat="None" />
    <mask fill="white" id="Clip13">
      <path d="M 0 5.5  C 0 2.42  2.6399999999999997 0  6 0  C 9.36 0  12 2.42  12 5.5  C 12 8.58  9.36 11  6 11  C 2.6399999999999997 11  0 8.58  0 5.5  Z " fill-rule="evenodd" />
    </mask>
  </defs>
  <g transform="matrix(1 0 0 1 -902 -1579 )">
    <path d="M 0 5.5  C 0 2.42  2.6399999999999997 0  6 0  C 9.36 0  12 2.42  12 5.5  C 12 8.58  9.36 11  6 11  C 2.6399999999999997 11  0 8.58  0 5.5  Z " fill-rule="nonzero" fill="rgba(113, 113, 113, 1)" stroke="none" transform="matrix(1 0 0 1 902 1579 )" class="fill" />
    <path d="M 0 5.5  C 0 2.42  2.6399999999999997 0  6 0  C 9.36 0  12 2.42  12 5.5  C 12 8.58  9.36 11  6 11  C 2.6399999999999997 11  0 8.58  0 5.5  Z " stroke-width="0" stroke-dasharray="0" stroke="rgba(121, 121, 121, 1)" fill="none" transform="matrix(1 0 0 1 902 1579 )" class="stroke" mask="url(#Clip13)" />
  </g>
</svg>