<?xml version="1.0" encoding="utf-8"?>
<svg version="1.1" xmlns:xlink="http://www.w3.org/1999/xlink" width="10px" height="32px" preserveAspectRatio="xMidYMin meet" viewBox="802 1654 8 32" xmlns="http://www.w3.org/2000/svg">
  <path d="M 788 1681.5  L 801 1681.5  A 5 5 0 0 0 806.5 1676.5 L 806.5 1664  A 5 5 0 0 1 811.5 1659.5 L 822 1659.5  " stroke-width="1" stroke-dasharray="0" stroke="rgba(188, 12, 12, 1)" fill="none" class="stroke" />
  <path d="M 793.0535533905933 1686.1464466094067  L 788.4071067811866 1681.5  L 793.0535533905933 1676.8535533905933  L 792.3464466094068 1676.1464466094067  L 787.3464466094068 1681.1464466094067  L 786.9928932188135 1681.5  L 787.3464466094068 1681.8535533905933  L 792.3464466094068 1686.8535533905933  L 793.0535533905933 1686.1464466094067  Z M 816.9464466094067 1654.8535533905933  L 821.5928932188134 1659.5  L 816.9464466094067 1664.1464466094067  L 817.6535533905932 1664.8535533905933  L 822.6535533905932 1659.8535533905933  L 823.0071067811865 1659.5  L 822.6535533905932 1659.1464466094067  L 817.6535533905932 1654.1464466094067  L 816.9464466094067 1654.8535533905933  Z " fill-rule="nonzero" fill="rgba(188, 12, 12, 1)" stroke="none" class="fill" />
</svg>