<?xml version="1.0" encoding="utf-8"?>
<svg version="1.1" xmlns:xlink="http://www.w3.org/1999/xlink" width="18px" height="18px" preserveAspectRatio="xMinYMid meet" viewBox="242 243 18 16" xmlns="http://www.w3.org/2000/svg">
  <path d="M 72.5 211  L 72.5 226  A 5 5 0 0 0 77.5 231.5 L 246 231.5  A 5 5 0 0 1 251.5 236.5 L 251.5 251  " stroke-width="1" stroke-dasharray="0" stroke="rgba(188, 12, 12, 1)" fill="none" class="stroke" />
  <path d="M 67.85355339059328 216.05355339059327  L 72.5 211.40710678118654  L 77.14644660940672 216.05355339059327  L 77.85355339059328 215.3464466094067  L 72.85355339059328 210.3464466094067  L 72.5 209.99289321881344  L 72.14644660940672 210.3464466094067  L 67.14644660940672 215.3464466094067  L 67.85355339059328 216.05355339059327  Z M 256.1464466094067 245.94644660940673  L 251.5 250.59289321881346  L 246.85355339059328 245.94644660940673  L 246.14644660940672 246.6535533905933  L 251.14644660940672 251.6535533905933  L 251.5 252.00710678118656  L 251.85355339059328 251.6535533905933  L 256.8535533905933 246.6535533905933  L 256.1464466094067 245.94644660940673  Z " fill-rule="nonzero" fill="rgba(188, 12, 12, 1)" stroke="none" class="fill" />
</svg>