<?xml version="1.0" encoding="utf-8"?>
<svg version="1.1" xmlns:xlink="http://www.w3.org/1999/xlink" width="240px" height="45px" xmlns="http://www.w3.org/2000/svg">
  <defs>
    <pattern id="BGPattern" patternUnits="userSpaceOnUse" alignment="0 0" imageRepeat="None" />
    <mask fill="white" id="Clip13">
      <path d="M 0 42  L 0 3  C 0 1.3199999999999998  1.3199999999999998 0  3 0  L 237 0  C 238.68 0  240 1.3199999999999998  240 3  L 240 42  C 240 43.68  238.68 45  237 45  L 3 45  C 1.3199999999999998 45  0 43.68  0 42  Z " fill-rule="evenodd" />
    </mask>
  </defs>
  <g transform="matrix(1 0 0 1 -41 -70 )">
    <path d="M 0 42  L 0 3  C 0 1.3199999999999998  1.3199999999999998 0  3 0  L 237 0  C 238.68 0  240 1.3199999999999998  240 3  L 240 42  C 240 43.68  238.68 45  237 45  L 3 45  C 1.3199999999999998 45  0 43.68  0 42  Z " fill-rule="nonzero" fill="rgba(255, 255, 255, 0)" stroke="none" transform="matrix(1 0 0 1 41 70 )" class="fill" />
    <path d="M 0 42  L 0 3  C 0 1.3199999999999998  1.3199999999999998 0  3 0  L 237 0  C 238.68 0  240 1.3199999999999998  240 3  L 240 42  C 240 43.68  238.68 45  237 45  L 3 45  C 1.3199999999999998 45  0 43.68  0 42  Z " stroke-width="2" stroke-dasharray="9,4" stroke="rgba(255, 36, 36, 1)" fill="none" transform="matrix(1 0 0 1 41 70 )" class="stroke" mask="url(#Clip13)" />
  </g>
</svg>