<?xml version="1.0" encoding="utf-8"?>
<svg version="1.1" xmlns:xlink="http://www.w3.org/1999/xlink" width="10px" height="82px" preserveAspectRatio="xMidYMin meet" viewBox="1001 563 8 82" xmlns="http://www.w3.org/2000/svg">
  <path d="M 1005.5 564  L 1005.5 635  A 5 5 0 0 1 1000.5 640.5 L 935 640.5  A 5 5 0 0 0 930.5 645.5 L 930.5 717  " stroke-width="1" stroke-dasharray="0" stroke="rgba(188, 12, 12, 1)" fill="none" class="stroke" />
  <path d="M 1000.8535533905932 569.0535533905933  L 1005.5 564.4071067811865  L 1010.1464466094068 569.0535533905933  L 1010.8535533905932 568.3464466094068  L 1005.8535533905932 563.3464466094068  L 1005.5 562.9928932188136  L 1005.1464466094068 563.3464466094068  L 1000.1464466094068 568.3464466094068  L 1000.8535533905932 569.0535533905933  Z M 935.1464466094068 711.9464466094067  L 930.5 716.5928932188135  L 925.8535533905932 711.9464466094067  L 925.1464466094068 712.6535533905932  L 930.1464466094068 717.6535533905932  L 930.5 718.0071067811864  L 930.8535533905932 717.6535533905932  L 935.8535533905932 712.6535533905932  L 935.1464466094068 711.9464466094067  Z " fill-rule="nonzero" fill="rgba(188, 12, 12, 1)" stroke="none" class="fill" />
</svg>