<?xml version="1.0" encoding="utf-8"?>
<svg version="1.1" xmlns:xlink="http://www.w3.org/1999/xlink" width="19px" height="24px" xmlns="http://www.w3.org/2000/svg">
  <defs>
    <pattern id="BGPattern" patternUnits="userSpaceOnUse" alignment="0 0" imageRepeat="None" />
    <mask fill="white" id="Clip9">
      <path d="M 0 12  C 0 5.279999999999999  4.18 0  9.5 0  C 14.82 0  19 5.279999999999999  19 12  C 19 18.72  14.82 24  9.5 24  C 4.18 24  0 18.72  0 12  Z " fill-rule="evenodd" />
    </mask>
  </defs>
  <g transform="matrix(1 0 0 1 -423 -469 )">
    <path d="M 0 12  C 0 5.279999999999999  4.18 0  9.5 0  C 14.82 0  19 5.279999999999999  19 12  C 19 18.72  14.82 24  9.5 24  C 4.18 24  0 18.72  0 12  Z " fill-rule="nonzero" fill="rgba(255, 255, 255, 0)" stroke="none" transform="matrix(1 0 0 1 423 469 )" class="fill" />
    <path d="M 0 12  C 0 5.279999999999999  4.18 0  9.5 0  C 14.82 0  19 5.279999999999999  19 12  C 19 18.72  14.82 24  9.5 24  C 4.18 24  0 18.72  0 12  Z " stroke-width="0" stroke-dasharray="0" stroke="rgba(121, 121, 121, 1)" fill="none" transform="matrix(1 0 0 1 423 469 )" class="stroke" mask="url(#Clip9)" />
  </g>
</svg>