<?xml version="1.0" encoding="utf-8"?>
<svg version="1.1" xmlns:xlink="http://www.w3.org/1999/xlink" width="10px" height="29px" preserveAspectRatio="xMidYMin meet" viewBox="260 896 8 29" xmlns="http://www.w3.org/2000/svg">
  <path d="M 294.5 878  L 294.5 896  A 5 5 0 0 1 289.5 901.5 L 269 901.5  A 5 5 0 0 0 264.5 906.5 L 264.5 924  " stroke-width="1" stroke-dasharray="0" stroke="rgba(188, 12, 12, 1)" fill="none" class="stroke" />
  <path d="M 289.8535533905933 883.0535533905933  L 294.5 878.4071067811865  L 299.1464466094067 883.0535533905933  L 299.8535533905933 882.3464466094068  L 294.8535533905933 877.3464466094068  L 294.5 876.9928932188135  L 294.1464466094067 877.3464466094068  L 289.1464466094067 882.3464466094068  L 289.8535533905933 883.0535533905933  Z M 269.1464466094067 918.9464466094067  L 264.5 923.5928932188135  L 259.8535533905933 918.9464466094067  L 259.1464466094067 919.6535533905932  L 264.1464466094067 924.6535533905932  L 264.5 925.0071067811865  L 264.8535533905933 924.6535533905932  L 269.8535533905933 919.6535533905932  L 269.1464466094067 918.9464466094067  Z " fill-rule="nonzero" fill="rgba(188, 12, 12, 1)" stroke="none" class="fill" />
</svg>